<?xml version="1.0" encoding="UTF-8"?>
<svg width="1566px" height="1080px" viewBox="0 0 1566 1080" version="1.1" xmlns="http://www.w3.org/2000/svg" xmlns:xlink="http://www.w3.org/1999/xlink" style="background: #C7123A;">
    <title>fahrbar</title>
    <defs></defs>
    <g id="Page-2" stroke="none" stroke-width="1" fill="none" fill-rule="evenodd">
        <g id="fahrbar">
            <g id="bus-svgrepo-com" transform="translate(1089.000000, 101.000000)" fill-rule="nonzero" fill="#C4C4C4">
                <path d="M299.72402,595.520746 L269.91228,595.520746 C249.383238,595.520746 232.602977,612.301006 232.602977,632.830049 C232.602977,653.359091 249.383238,670.139352 269.91228,670.139352 L299.72402,670.139352 C320.253063,670.139352 337.033324,653.359091 337.033324,632.830049 C336.85481,612.301006 320.074549,595.520746 299.72402,595.520746 Z" id="Shape"></path>
                <path d="M837.40642,130.314791 L775.997806,130.314791 L775.997806,74.4400932 C775.997806,33.5605216 742.615798,0 701.557713,0 L173.158011,0 C132.099926,0 98.7179174,33.5605216 98.7179174,74.4400932 L98.7179174,132.099926 L37.3093033,132.099926 C16.7802608,132.099926 0,148.880186 0,169.409229 L0,256.880801 C0,277.409844 16.7802608,294.190105 37.3093033,294.190105 C55.8746983,294.190105 72.6549591,277.409844 72.6549591,258.844449 L72.6549591,206.718532 L98.7179174,206.718532 L98.7179174,718.516487 C98.7179174,759.396059 132.278439,792.95658 173.158011,792.95658 L214.037582,792.95658 L214.037582,837.584934 C214.037582,858.113976 230.817843,874.894237 251.346885,874.894237 C271.875928,874.894237 286.692541,858.113976 288.656189,837.584934 L288.656189,792.95658 L586.416562,792.95658 L586.416562,837.584934 C586.416562,858.113976 603.196822,874.894237 623.725865,874.894237 C644.254907,874.894237 661.035168,858.113976 661.035168,837.584934 L661.035168,792.95658 L701.557713,792.95658 C742.437285,792.95658 775.997806,759.396059 775.997806,718.516487 L775.997806,204.754885 L800.27563,204.754885 L800.27563,256.880801 C800.27563,277.409844 817.055891,294.190105 837.584934,294.190105 C858.113976,294.190105 874.894237,277.409844 874.894237,256.880801 L874.894237,167.624095 C874.715724,147.095052 857.935463,130.314791 837.40642,130.314791 Z M703.52136,72.6549591 L703.52136,448.604207 L172.08693,448.604207 L173.158011,72.6549591 L703.52136,72.6549591 Z M703.52136,720.301621 L171.194363,720.301621 L171.729903,523.0443 L703.52136,523.0443 L703.52136,720.301621 L703.52136,720.301621 Z" id="Shape"></path>
            </g>
            <g id="analytics-svgrepo-com-(1)" transform="translate(677.000000, 546.000000)" fill-rule="nonzero">
                <circle id="Oval" fill="#C4C4C4" cx="215" cy="215" r="215"></circle>
                <polygon id="Shape" fill="#324A5E" points="77.8740157 326.732283 77.8740157 89.0472441 63.992126 89.0472441 63.992126 340.952756 366.007874 340.952756 366.007874 326.732283"></polygon>
                <g id="Group" transform="translate(94.803150, 131.200787)" fill="#FFFFFF">
                    <rect id="Rectangle-path" x="0.677165354" y="106.145669" width="22.007874" height="75.1653543"></rect>
                    <rect id="Rectangle-path" x="47.0629921" y="72.2874016" width="22.007874" height="108.685039"></rect>
                    <rect id="Rectangle-path" x="93.1102362" y="91.9251969" width="22.007874" height="89.0472441"></rect>
                    <rect id="Rectangle-path" x="139.496063" y="55.3582677" width="22.007874" height="125.614173"></rect>
                    <rect id="Rectangle-path" x="185.543307" y="91.9251969" width="22.007874" height="89.0472441"></rect>
                    <rect id="Rectangle-path" x="231.590551" y="64.8385827" width="22.007874" height="116.472441"></rect>
                    <path d="M53.8346457,38.4291339 L22.6850394,66.8700787 C21.3307087,63.484252 18.6220472,61.1141732 15.2362205,60.0984252 L47.4015748,30.980315 C48.0787402,34.3661417 50.7874016,37.0748031 53.8346457,38.4291339 Z" id="Shape"></path>
                    <path d="M69.4094488,27.5944882 L97.511811,41.1377953 C94.8031496,43.507874 93.1102362,46.5551181 93.1102362,50.2795276 L93.1102362,50.2795276 L65.007874,36.7362205 C67.7165354,34.7047244 69.4094488,31.3188976 69.4094488,27.5944882 L69.4094488,27.5944882 Z" id="Shape"></path>
                    <path d="M147.283465,17.0984252 L115.11811,47.2322835 C114.102362,43.8464567 111.393701,41.1377953 108.346457,39.7834646 L139.834646,9.98818898 C141.188976,13.3740157 143.897638,16.0826772 147.283465,17.0984252 Z" id="Shape"></path>
                    <path d="M161.165354,9.6496063 L187.574803,31.6574803 C184.527559,33.6889764 182.834646,36.7362205 182.834646,40.7992126 L154.055118,17.0984252 C157.440945,15.7440945 160.149606,13.0354331 161.165354,9.6496063 Z" id="Shape"></path>
                    <path d="M205.519685,41.1377953 L205.519685,41.1377953 C205.519685,37.0748031 203.826772,34.0275591 201.11811,31.996063 L239.716535,0.169291339 L246.149606,7.95669291 L205.519685,41.1377953 Z" id="Shape"></path>
                </g>
                <g id="Group" transform="translate(95.649606, 123.582677)" fill="#FF7058">
                    <circle id="Oval" cx="11.3425197" cy="78.2125984" r="11.1732283"></circle>
                    <circle id="Oval" cx="57.0511811" cy="35.5511811" r="11.1732283"></circle>
                    <circle id="Oval" cx="103.437008" cy="57.8976378" r="11.1732283"></circle>
                    <circle id="Oval" cx="149.484252" cy="13.8818898" r="11.1732283"></circle>
                    <circle id="Oval" cx="193.161417" cy="48.7559055" r="11.1732283"></circle>
                    <polygon id="Shape" points="250.043307 26.7480315 227.358268 0.677165354 251.73622 2.37007874"></polygon>
                </g>
            </g>
            <text id="Projekt-Fahrbar-KI-b" font-family="LucidaSans-Typewriter, Lucida Sans Typewriter" font-size="72" font-weight="normal">
                <tspan x="88" y="167" fill="#FFFFFF">Projekt Fahrbar</tspan>
                <tspan x="738.742188" y="167" fill="#C4C4C4"></tspan>
                <tspan x="88" y="251" fill="#C4C4C4">KI basierte </tspan>
                <tspan x="88" y="335" fill="#C4C4C4">Belegungsoptimierung </tspan>
                <tspan x="88" y="419" fill="#C4C4C4">im ÖPNV</tspan>
            </text>
            <g id="Logo" transform="translate(88.000000, 872.000000)" fill="#FFFFFF">
                <path d="M66.9025715,87.9619159 C61.1593263,87.9018457 57.4709739,86.4403549 54.9313355,83.2231917 C51.92351,79.4137693 50.5228452,73.1304302 50.5228452,63.448094 L50.5228452,26.6721661 L31.0800981,26.6721661 L31.0800981,67.0292499 C31.0800981,76.5196862 32.7018693,84.2573727 35.8999565,90.0280048 C38.8934961,95.4297736 43.365948,99.2700429 49.1932851,101.442635 L49.5520553,101.576412 L49.5520553,101.596544 C51.7783786,102.500194 57.5024677,104 65.4545036,104 C67.7675161,104 70.1714388,103.876937 72.5987383,103.634059 L72.6165956,103.632436 L72.6338036,103.631786 C76.7146928,103.484371 80.4264221,102.858342 83.6670423,101.771559 L83.6871724,101.765065 L83.6878218,101.764741 C89.8041231,99.7083927 94.4993048,95.9083867 97.6421966,90.4705757 C101.006844,84.650264 102.714006,76.7628892 102.714006,67.0292499 L102.714006,26.6721661 L83.2706094,26.6721661 L83.2706094,63.448094 C83.2706094,73.1304302 81.8699446,79.4137693 78.8621191,83.2231917 C76.322156,86.4403549 72.6338036,87.9018457 66.9025715,87.9619159" id="Fill-8"></path>
                <polygon id="Fill-9" points="0.444045596 102.20926 17.6601448 102.20926 17.6601448 27.0046625 0.444045596 27.0046625"></polygon>
                <path d="M303.618821,34.203341 L302.615563,35.6680789 L302.615563,27.0046625 L286.914091,27.0046625 L286.914091,102.20926 L304.128567,102.20926 L304.128567,60.337109 C304.128567,54.2995706 305.544167,49.6800127 308.336406,46.6060438 C311.047475,43.6187708 315.144923,41.989733 320.518359,41.7608169 L320.518359,25.2139223 L319.693674,25.2139223 C312.102681,25.2139223 308.346146,27.3141051 303.618821,34.203341" id="Fill-10"></path>
                <path d="M167.519916,28.5002473 L167.289394,28.4145255 L167.282901,28.3966668 C165.14976,27.4998355 159.360735,25.9428818 151.259996,25.9428818 C148.945036,25.9428818 146.542412,26.0659445 144.113814,26.3088228 L144.09758,26.3104463 L144.081346,26.3110957 C140.000132,26.4591605 136.285805,27.0845396 133.04551,28.1713225 L133.026029,28.1781413 C126.909078,30.2348138 122.214221,34.0348198 119.071329,39.4723061 C115.707656,45.2932672 113.999845,53.1803173 113.999845,62.9136319 L113.999845,103.270716 L133.441618,103.270716 L133.441618,66.4951125 C133.441618,56.8127763 134.844231,50.5291125 137.850757,46.7196901 C140.392993,43.502527 144.081346,42.0413608 149.811928,41.9812907 C155.555498,42.0413608 159.243851,43.502527 161.78284,46.7196901 C164.789367,50.5291125 166.191979,56.8127763 166.191979,66.4951125 L166.191979,103.270716 L185.633752,103.270716 L185.633752,62.9136319 C185.633752,53.4235203 184.010358,45.6855092 180.812271,39.9148771 C177.818731,34.5131082 173.347903,30.6728389 167.519916,28.5002473" id="Fill-11"></path>
                <path d="M363.213635,25.2139223 C357.749289,25.2139223 352.57066,26.2130352 347.827102,28.1823624 C343.223155,30.0951913 339.151681,32.8684846 335.719825,36.425937 C328.761956,43.6486436 324.927498,53.7547179 324.927498,64.8826345 C324.927498,75.867032 328.722995,85.8383544 335.619175,92.9594287 C339.008822,96.4633051 343.038088,99.1950364 347.593333,101.078317 C352.284943,103.017122 357.401883,104 362.801293,104 C369.09357,104 374.135834,102.791453 378.635883,100.201293 L378.635883,84.5395401 C374.967012,87.0017674 370.421507,88.2976594 365.418205,88.2976594 C358.703845,88.2976594 352.934301,86.0935714 348.726462,81.9224292 C344.508883,77.7412211 342.281586,71.9916948 342.281586,65.2956574 C342.281586,58.420059 344.551091,52.2026348 348.67776,47.7886143 C352.820663,43.3564103 358.66813,40.9159382 365.142228,40.9159382 C370.035139,40.9159382 374.596878,42.2806674 378.333932,44.8627103 L378.340425,44.8646585 C378.431336,44.9185593 380.632659,46.2176983 383.006061,49.2614697 C383.116452,49.4053134 383.226843,49.5540277 383.337234,49.7030666 C383.40217,49.7871648 383.463859,49.8719125 383.525548,49.9573095 C383.6749,50.1621975 383.824252,50.3778007 383.970358,50.5953521 C384.061268,50.7307535 384.152178,50.8700513 384.243088,51.0112974 C384.321011,51.1301389 384.395687,51.2470322 384.470363,51.3652243 C386.811298,55.1324352 388.200924,59.5750297 388.600279,64.576439 L388.713917,64.576439 L388.713917,66.7327955 C388.726904,67.4003861 388.726904,68.0436239 388.713917,68.6878358 L388.713917,102.20926 L404.395908,102.20926 L404.395908,27.0046625 L388.694436,27.0046625 L388.694436,38.2916838 L387.704165,36.9779331 C381.486564,28.7320856 374.161808,25.2139223 363.213635,25.2139223" id="Fill-12"></path>
                <path d="M235.955737,25.2139223 C225.244579,25.2139223 215.250963,29.3084345 207.815816,36.7428477 C200.383915,44.1775857 196.289714,54.1713126 196.289714,64.8826345 C196.289714,75.5267427 200.465085,85.4013034 208.049584,92.6870024 C215.643824,99.9821178 225.945886,104 237.056398,104 C244.757782,104 252.48514,101.79234 258.816379,97.7841993 C265.426841,93.595523 270.196374,87.7083224 272.6477,80.7223247 L253.699439,80.7223247 C248.942893,86.2400127 244.293491,88.2976594 236.644056,88.2976594 C228.260846,88.2976594 221.319211,84.8626201 217.533455,78.8595003 L217.530209,78.8595003 L217.367869,78.5919445 L217.354882,78.5714882 L217.351635,78.5656435 C216.569159,77.2710503 215.929541,75.851771 215.449017,74.3474193 C212.611323,66.8292325 213.283408,60.6429798 214.348355,56.7767342 C215.504212,52.5663028 217.325661,50.1657692 217.403584,50.0657605 L217.423064,50.0381607 C221.36142,44.0701088 227.861491,40.9159382 236.228467,40.9159382 C247.761062,40.9159382 255.433224,46.4469391 257.839095,56.4900209 L258.001435,57.1689761 L224.186126,57.1689761 C222.738058,63.4367294 223.426378,68.7170591 224.328985,72.1826205 L274.206159,72.1826205 C274.654216,69.9564527 274.793828,68.3706004 274.793828,65.7090051 C274.793828,54.3950334 270.881447,44.0869934 263.774226,36.683427 C256.673498,29.2873287 246.793519,25.2139223 235.955737,25.2139223" id="Fill-13"></path>
                <polyline id="Fill-14" points="17.6601448 16.7128577 17.6601448 0.274414062 1.22359966 0.274414062 17.6601448 16.7128577"></polyline>
            </g>
        </g>
    </g>
</svg>
